<mxfile host="app.diagrams.net" modified="2021-09-14T16:11:09.090Z" agent="5.0 (X11; Linux x86_64) AppleWebKit/537.36 (KHTML, like Gecko) Chrome/93.0.4577.63 Safari/537.36" etag="LGUCCy6VOgWxRHJto30W" version="15.2.1" type="github">
  <diagram id="Yj6DFzL0j5Qf95JARL4s" name="Page-1">
    <mxGraphModel dx="2858" dy="2272" grid="1" gridSize="10" guides="1" tooltips="1" connect="1" arrows="1" fold="1" page="1" pageScale="1" pageWidth="827" pageHeight="1169" math="0" shadow="0">
      <root>
        <mxCell id="0" />
        <mxCell id="1" parent="0" />
        <mxCell id="6rRiFF-nvon5pC7xxNcr-5" value="SinhVien" style="swimlane;fontStyle=1;align=center;verticalAlign=top;childLayout=stackLayout;horizontal=1;startSize=26;horizontalStack=0;resizeParent=1;resizeParentMax=0;resizeLast=0;collapsible=1;marginBottom=0;fillColor=#fff2cc;strokeColor=#d6b656;" vertex="1" parent="1">
          <mxGeometry x="510" y="300" width="210" height="340" as="geometry" />
        </mxCell>
        <mxCell id="6rRiFF-nvon5pC7xxNcr-6" value="- maSinhVien: String&#xa;- maHoSo: String&#xa;- avatar: String&#xa;- hoTenDem: String&#xa;- ten: String&#xa;- gioiTinh: boolean&#xa;- bacDaoTao: BacDaoTao&#xa;- trangThai: TrangThai&#xa;- loaiHinhDaoTao: LoaiHinhDaoTao&#xa;- ngayVaoTruong: Date&#xa;- ngaySinh: Date&#xa;- ngayVaoDoan: Date&#xa;- soDienThoai: String&#xa;- diaChi: String&#xa;- noiSinh: String&#xa;- hoKhauThuongTru: String&#xa;- danToc: DanToc&#xa;- ngayVaoDang: Date&#xa;- email: String&#xa;- tonGiao: TonGiao" style="text;strokeColor=none;fillColor=none;align=left;verticalAlign=top;spacingLeft=4;spacingRight=4;overflow=hidden;rotatable=0;points=[[0,0.5],[1,0.5]];portConstraint=eastwest;" vertex="1" parent="6rRiFF-nvon5pC7xxNcr-5">
          <mxGeometry y="26" width="210" height="314" as="geometry" />
        </mxCell>
        <mxCell id="6rRiFF-nvon5pC7xxNcr-9" value="Khoa_Vien" style="swimlane;fontStyle=1;align=center;verticalAlign=top;childLayout=stackLayout;horizontal=1;startSize=26;horizontalStack=0;resizeParent=1;resizeParentMax=0;resizeLast=0;collapsible=1;marginBottom=0;fillColor=#fff2cc;strokeColor=#d6b656;" vertex="1" parent="1">
          <mxGeometry x="-100" y="2" width="160" height="80" as="geometry" />
        </mxCell>
        <mxCell id="6rRiFF-nvon5pC7xxNcr-10" value="- id: String&#xa;- ten: String&#xa;- lienKet: String" style="text;strokeColor=none;fillColor=none;align=left;verticalAlign=top;spacingLeft=4;spacingRight=4;overflow=hidden;rotatable=0;points=[[0,0.5],[1,0.5]];portConstraint=eastwest;" vertex="1" parent="6rRiFF-nvon5pC7xxNcr-9">
          <mxGeometry y="26" width="160" height="54" as="geometry" />
        </mxCell>
        <mxCell id="6rRiFF-nvon5pC7xxNcr-13" value="ChuyenNganh" style="swimlane;fontStyle=1;align=center;verticalAlign=top;childLayout=stackLayout;horizontal=1;startSize=26;horizontalStack=0;resizeParent=1;resizeParentMax=0;resizeLast=0;collapsible=1;marginBottom=0;fillColor=#fff2cc;strokeColor=#d6b656;" vertex="1" parent="1">
          <mxGeometry x="-20" y="240" width="160" height="80" as="geometry" />
        </mxCell>
        <mxCell id="6rRiFF-nvon5pC7xxNcr-14" value="- id: String&#xa;- ten: String" style="text;strokeColor=none;fillColor=none;align=left;verticalAlign=top;spacingLeft=4;spacingRight=4;overflow=hidden;rotatable=0;points=[[0,0.5],[1,0.5]];portConstraint=eastwest;" vertex="1" parent="6rRiFF-nvon5pC7xxNcr-13">
          <mxGeometry y="26" width="160" height="54" as="geometry" />
        </mxCell>
        <mxCell id="6rRiFF-nvon5pC7xxNcr-17" style="edgeStyle=orthogonalEdgeStyle;rounded=0;orthogonalLoop=1;jettySize=auto;html=1;endArrow=none;endFill=0;exitX=-0.004;exitY=0.335;exitDx=0;exitDy=0;exitPerimeter=0;entryX=1.013;entryY=0.183;entryDx=0;entryDy=0;entryPerimeter=0;" edge="1" parent="1" source="6rRiFF-nvon5pC7xxNcr-6" target="6rRiFF-nvon5pC7xxNcr-31">
          <mxGeometry relative="1" as="geometry">
            <mxPoint x="200" y="440" as="targetPoint" />
            <Array as="points">
              <mxPoint x="390" y="431" />
              <mxPoint x="390" y="390" />
              <mxPoint x="290" y="390" />
              <mxPoint x="290" y="463" />
            </Array>
          </mxGeometry>
        </mxCell>
        <mxCell id="6rRiFF-nvon5pC7xxNcr-19" value="*" style="edgeLabel;html=1;align=center;verticalAlign=middle;resizable=0;points=[];" vertex="1" connectable="0" parent="6rRiFF-nvon5pC7xxNcr-17">
          <mxGeometry x="-0.831" relative="1" as="geometry">
            <mxPoint as="offset" />
          </mxGeometry>
        </mxCell>
        <mxCell id="6rRiFF-nvon5pC7xxNcr-21" value="1" style="edgeLabel;html=1;align=center;verticalAlign=middle;resizable=0;points=[];" vertex="1" connectable="0" parent="6rRiFF-nvon5pC7xxNcr-17">
          <mxGeometry x="0.7978" y="1" relative="1" as="geometry">
            <mxPoint as="offset" />
          </mxGeometry>
        </mxCell>
        <mxCell id="6rRiFF-nvon5pC7xxNcr-18" style="edgeStyle=orthogonalEdgeStyle;rounded=0;orthogonalLoop=1;jettySize=auto;html=1;exitX=0.5;exitY=0;exitDx=0;exitDy=0;endArrow=none;endFill=0;entryX=0.504;entryY=0.991;entryDx=0;entryDy=0;entryPerimeter=0;" edge="1" parent="1" source="6rRiFF-nvon5pC7xxNcr-13" target="6rRiFF-nvon5pC7xxNcr-10">
          <mxGeometry relative="1" as="geometry">
            <mxPoint x="70" y="150" as="targetPoint" />
            <Array as="points">
              <mxPoint x="60" y="200" />
              <mxPoint x="-19" y="200" />
            </Array>
          </mxGeometry>
        </mxCell>
        <mxCell id="6rRiFF-nvon5pC7xxNcr-22" value="1" style="edgeLabel;html=1;align=center;verticalAlign=middle;resizable=0;points=[];" vertex="1" connectable="0" parent="6rRiFF-nvon5pC7xxNcr-18">
          <mxGeometry x="0.7847" y="-1" relative="1" as="geometry">
            <mxPoint as="offset" />
          </mxGeometry>
        </mxCell>
        <mxCell id="6rRiFF-nvon5pC7xxNcr-24" value="*" style="edgeLabel;html=1;align=center;verticalAlign=middle;resizable=0;points=[];" vertex="1" connectable="0" parent="6rRiFF-nvon5pC7xxNcr-18">
          <mxGeometry x="-0.8841" y="1" relative="1" as="geometry">
            <mxPoint x="3" y="9" as="offset" />
          </mxGeometry>
        </mxCell>
        <mxCell id="6rRiFF-nvon5pC7xxNcr-45" style="edgeStyle=orthogonalEdgeStyle;rounded=0;orthogonalLoop=1;jettySize=auto;html=1;exitX=0.452;exitY=0.999;exitDx=0;exitDy=0;entryX=0.75;entryY=0;entryDx=0;entryDy=0;endArrow=none;endFill=0;exitPerimeter=0;" edge="1" parent="1" source="6rRiFF-nvon5pC7xxNcr-27" target="6rRiFF-nvon5pC7xxNcr-41">
          <mxGeometry relative="1" as="geometry">
            <mxPoint x="778.8000000000002" y="-25.01200000000017" as="sourcePoint" />
          </mxGeometry>
        </mxCell>
        <mxCell id="6rRiFF-nvon5pC7xxNcr-49" value="*" style="edgeLabel;html=1;align=center;verticalAlign=middle;resizable=0;points=[];" vertex="1" connectable="0" parent="6rRiFF-nvon5pC7xxNcr-45">
          <mxGeometry x="0.6346" y="1" relative="1" as="geometry">
            <mxPoint as="offset" />
          </mxGeometry>
        </mxCell>
        <mxCell id="6rRiFF-nvon5pC7xxNcr-51" value="1" style="edgeLabel;html=1;align=center;verticalAlign=middle;resizable=0;points=[];" vertex="1" connectable="0" parent="6rRiFF-nvon5pC7xxNcr-45">
          <mxGeometry x="-0.819" y="1" relative="1" as="geometry">
            <mxPoint as="offset" />
          </mxGeometry>
        </mxCell>
        <mxCell id="6rRiFF-nvon5pC7xxNcr-26" value="LopHocPhan" style="swimlane;fontStyle=1;align=center;verticalAlign=top;childLayout=stackLayout;horizontal=1;startSize=26;horizontalStack=0;resizeParent=1;resizeParentMax=0;resizeLast=0;collapsible=1;marginBottom=0;" vertex="1" parent="1">
          <mxGeometry x="670" y="-220" width="200" height="160" as="geometry" />
        </mxCell>
        <mxCell id="6rRiFF-nvon5pC7xxNcr-27" value="- id: String&#xa;- maLopHocPhan: String&#xa;- tenVietTat: String&#xa;- tenLopHocPhan: String&#xa;- soNhomThucHanh: int&#xa;- trangThai: TrangThaiLopHocPhan&#xa;- soLuongToiDa: int&#xa;- moTa: String" style="text;strokeColor=none;fillColor=none;align=left;verticalAlign=top;spacingLeft=4;spacingRight=4;overflow=hidden;rotatable=0;points=[[0,0.5],[1,0.5]];portConstraint=eastwest;" vertex="1" parent="6rRiFF-nvon5pC7xxNcr-26">
          <mxGeometry y="26" width="200" height="134" as="geometry" />
        </mxCell>
        <mxCell id="6rRiFF-nvon5pC7xxNcr-180" style="edgeStyle=orthogonalEdgeStyle;rounded=0;orthogonalLoop=1;jettySize=auto;html=1;exitX=0.75;exitY=0;exitDx=0;exitDy=0;entryX=0.169;entryY=1.004;entryDx=0;entryDy=0;entryPerimeter=0;endArrow=none;endFill=0;" edge="1" parent="1" source="6rRiFF-nvon5pC7xxNcr-30" target="6rRiFF-nvon5pC7xxNcr-75">
          <mxGeometry relative="1" as="geometry" />
        </mxCell>
        <mxCell id="6rRiFF-nvon5pC7xxNcr-181" value="1" style="edgeLabel;html=1;align=center;verticalAlign=middle;resizable=0;points=[];" vertex="1" connectable="0" parent="6rRiFF-nvon5pC7xxNcr-180">
          <mxGeometry x="0.8724" y="1" relative="1" as="geometry">
            <mxPoint as="offset" />
          </mxGeometry>
        </mxCell>
        <mxCell id="6rRiFF-nvon5pC7xxNcr-182" value="*" style="edgeLabel;html=1;align=center;verticalAlign=middle;resizable=0;points=[];" vertex="1" connectable="0" parent="6rRiFF-nvon5pC7xxNcr-180">
          <mxGeometry x="-0.8863" relative="1" as="geometry">
            <mxPoint as="offset" />
          </mxGeometry>
        </mxCell>
        <mxCell id="6rRiFF-nvon5pC7xxNcr-30" value="Lop" style="swimlane;fontStyle=1;align=center;verticalAlign=top;childLayout=stackLayout;horizontal=1;startSize=26;horizontalStack=0;resizeParent=1;resizeParentMax=0;resizeLast=0;collapsible=1;marginBottom=0;fillColor=#fff2cc;strokeColor=#d6b656;" vertex="1" parent="1">
          <mxGeometry x="30" y="425" width="160" height="90" as="geometry" />
        </mxCell>
        <mxCell id="6rRiFF-nvon5pC7xxNcr-31" value="- id: String&#xa;- tenLop: String&#xa;- khoaHoc: String" style="text;strokeColor=none;fillColor=none;align=left;verticalAlign=top;spacingLeft=4;spacingRight=4;overflow=hidden;rotatable=0;points=[[0,0.5],[1,0.5]];portConstraint=eastwest;" vertex="1" parent="6rRiFF-nvon5pC7xxNcr-30">
          <mxGeometry y="26" width="160" height="64" as="geometry" />
        </mxCell>
        <mxCell id="6rRiFF-nvon5pC7xxNcr-34" style="edgeStyle=orthogonalEdgeStyle;rounded=0;orthogonalLoop=1;jettySize=auto;html=1;exitX=0.5;exitY=0;exitDx=0;exitDy=0;entryX=0.441;entryY=1.046;entryDx=0;entryDy=0;endArrow=none;endFill=0;entryPerimeter=0;" edge="1" parent="1" source="6rRiFF-nvon5pC7xxNcr-30" target="6rRiFF-nvon5pC7xxNcr-14">
          <mxGeometry relative="1" as="geometry">
            <mxPoint x="70.08000000000038" y="323.99800000000005" as="targetPoint" />
            <Array as="points">
              <mxPoint x="90" y="359" />
              <mxPoint x="51" y="359" />
            </Array>
          </mxGeometry>
        </mxCell>
        <mxCell id="6rRiFF-nvon5pC7xxNcr-62" value="1" style="edgeLabel;html=1;align=center;verticalAlign=middle;resizable=0;points=[];" vertex="1" connectable="0" parent="6rRiFF-nvon5pC7xxNcr-34">
          <mxGeometry x="0.7728" relative="1" as="geometry">
            <mxPoint as="offset" />
          </mxGeometry>
        </mxCell>
        <mxCell id="6rRiFF-nvon5pC7xxNcr-63" value="*" style="edgeLabel;html=1;align=center;verticalAlign=middle;resizable=0;points=[];" vertex="1" connectable="0" parent="6rRiFF-nvon5pC7xxNcr-34">
          <mxGeometry x="-0.7983" y="-1" relative="1" as="geometry">
            <mxPoint as="offset" />
          </mxGeometry>
        </mxCell>
        <mxCell id="6rRiFF-nvon5pC7xxNcr-41" value="HocSinh_LopHocPhan" style="swimlane;fontStyle=1;align=center;verticalAlign=top;childLayout=stackLayout;horizontal=1;startSize=26;horizontalStack=0;resizeParent=1;resizeParentMax=0;resizeLast=0;collapsible=1;marginBottom=0;" vertex="1" parent="1">
          <mxGeometry x="627" y="108" width="200" height="140" as="geometry" />
        </mxCell>
        <mxCell id="6rRiFF-nvon5pC7xxNcr-42" value="- diemThuongKy: List&lt;double&gt;&#xa;- diemGiuaKy: double&#xa;- diemThucHanh: List&lt;double&gt;&#xa;- diemCuoiKy: double&#xa;- ghiChu: String" style="text;strokeColor=none;fillColor=none;align=left;verticalAlign=top;spacingLeft=4;spacingRight=4;overflow=hidden;rotatable=0;points=[[0,0.5],[1,0.5]];portConstraint=eastwest;" vertex="1" parent="6rRiFF-nvon5pC7xxNcr-41">
          <mxGeometry y="26" width="200" height="114" as="geometry" />
        </mxCell>
        <mxCell id="6rRiFF-nvon5pC7xxNcr-46" style="edgeStyle=orthogonalEdgeStyle;rounded=0;orthogonalLoop=1;jettySize=auto;html=1;exitX=0.5;exitY=0;exitDx=0;exitDy=0;entryX=0.488;entryY=1;entryDx=0;entryDy=0;endArrow=none;endFill=0;entryPerimeter=0;" edge="1" parent="1" source="6rRiFF-nvon5pC7xxNcr-5" target="6rRiFF-nvon5pC7xxNcr-42">
          <mxGeometry relative="1" as="geometry">
            <mxPoint x="690.56" y="376.3380000000002" as="targetPoint" />
          </mxGeometry>
        </mxCell>
        <mxCell id="6rRiFF-nvon5pC7xxNcr-47" value="1" style="edgeLabel;html=1;align=center;verticalAlign=middle;resizable=0;points=[];" vertex="1" connectable="0" parent="6rRiFF-nvon5pC7xxNcr-46">
          <mxGeometry x="-0.8374" y="-2" relative="1" as="geometry">
            <mxPoint x="8" y="-5" as="offset" />
          </mxGeometry>
        </mxCell>
        <mxCell id="6rRiFF-nvon5pC7xxNcr-48" value="*" style="edgeLabel;html=1;align=center;verticalAlign=middle;resizable=0;points=[];" vertex="1" connectable="0" parent="6rRiFF-nvon5pC7xxNcr-46">
          <mxGeometry x="0.7626" y="-1" relative="1" as="geometry">
            <mxPoint x="8" as="offset" />
          </mxGeometry>
        </mxCell>
        <mxCell id="6rRiFF-nvon5pC7xxNcr-52" value="MonHoc" style="swimlane;fontStyle=1;align=center;verticalAlign=top;childLayout=stackLayout;horizontal=1;startSize=26;horizontalStack=0;resizeParent=1;resizeParentMax=0;resizeLast=0;collapsible=1;marginBottom=0;" vertex="1" parent="1">
          <mxGeometry x="200" y="-116" width="160" height="98" as="geometry" />
        </mxCell>
        <mxCell id="6rRiFF-nvon5pC7xxNcr-53" value="- id: String&#xa;- ten: String&#xa;- moTa: String" style="text;strokeColor=none;fillColor=none;align=left;verticalAlign=top;spacingLeft=4;spacingRight=4;overflow=hidden;rotatable=0;points=[[0,0.5],[1,0.5]];portConstraint=eastwest;" vertex="1" parent="6rRiFF-nvon5pC7xxNcr-52">
          <mxGeometry y="26" width="160" height="72" as="geometry" />
        </mxCell>
        <mxCell id="6rRiFF-nvon5pC7xxNcr-64" value="HocKy" style="swimlane;fontStyle=1;align=center;verticalAlign=top;childLayout=stackLayout;horizontal=1;startSize=26;horizontalStack=0;resizeParent=1;resizeParentMax=0;resizeLast=0;collapsible=1;marginBottom=0;" vertex="1" parent="1">
          <mxGeometry x="400" y="-340" width="160" height="138" as="geometry" />
        </mxCell>
        <mxCell id="6rRiFF-nvon5pC7xxNcr-65" value="- id: String&#xa;- namBatDau: int&#xa;- namKetThuc: int&#xa;- thuTu: int&#xa;- moTa: String" style="text;strokeColor=none;fillColor=none;align=left;verticalAlign=top;spacingLeft=4;spacingRight=4;overflow=hidden;rotatable=0;points=[[0,0.5],[1,0.5]];portConstraint=eastwest;" vertex="1" parent="6rRiFF-nvon5pC7xxNcr-64">
          <mxGeometry y="26" width="160" height="112" as="geometry" />
        </mxCell>
        <mxCell id="6rRiFF-nvon5pC7xxNcr-68" style="edgeStyle=orthogonalEdgeStyle;rounded=0;orthogonalLoop=1;jettySize=auto;html=1;exitX=0.5;exitY=0;exitDx=0;exitDy=0;entryX=0.522;entryY=0.996;entryDx=0;entryDy=0;endArrow=none;endFill=0;entryPerimeter=0;" edge="1" parent="1" source="6rRiFF-nvon5pC7xxNcr-151" target="6rRiFF-nvon5pC7xxNcr-65">
          <mxGeometry relative="1" as="geometry">
            <mxPoint x="497.12000000000035" y="-168.49400000000014" as="targetPoint" />
          </mxGeometry>
        </mxCell>
        <mxCell id="6rRiFF-nvon5pC7xxNcr-69" value="*" style="edgeLabel;html=1;align=center;verticalAlign=middle;resizable=0;points=[];" vertex="1" connectable="0" parent="6rRiFF-nvon5pC7xxNcr-68">
          <mxGeometry x="-0.7169" y="-1" relative="1" as="geometry">
            <mxPoint as="offset" />
          </mxGeometry>
        </mxCell>
        <mxCell id="6rRiFF-nvon5pC7xxNcr-70" value="1" style="edgeLabel;html=1;align=center;verticalAlign=middle;resizable=0;points=[];" vertex="1" connectable="0" parent="6rRiFF-nvon5pC7xxNcr-68">
          <mxGeometry x="0.6961" relative="1" as="geometry">
            <mxPoint as="offset" />
          </mxGeometry>
        </mxCell>
        <mxCell id="6rRiFF-nvon5pC7xxNcr-74" value="GiangVien" style="swimlane;fontStyle=1;align=center;verticalAlign=top;childLayout=stackLayout;horizontal=1;startSize=26;horizontalStack=0;resizeParent=1;resizeParentMax=0;resizeLast=0;collapsible=1;marginBottom=0;" vertex="1" parent="1">
          <mxGeometry x="190" y="110" width="160" height="160" as="geometry" />
        </mxCell>
        <mxCell id="6rRiFF-nvon5pC7xxNcr-75" value="- id: String&#xa;- hoTenDem: String&#xa;- ten: String&#xa;- avatar: String&#xa;- gioiTinh: String&#xa;- soDienThoai: String&#xa;- email: String&#xa;- hocHam: HocHam" style="text;strokeColor=none;fillColor=none;align=left;verticalAlign=top;spacingLeft=4;spacingRight=4;overflow=hidden;rotatable=0;points=[[0,0.5],[1,0.5]];portConstraint=eastwest;" vertex="1" parent="6rRiFF-nvon5pC7xxNcr-74">
          <mxGeometry y="26" width="160" height="134" as="geometry" />
        </mxCell>
        <mxCell id="6rRiFF-nvon5pC7xxNcr-78" style="edgeStyle=orthogonalEdgeStyle;rounded=0;orthogonalLoop=1;jettySize=auto;html=1;exitX=0;exitY=0.5;exitDx=0;exitDy=0;entryX=1;entryY=0.5;entryDx=0;entryDy=0;endArrow=none;endFill=0;" edge="1" parent="1" source="6rRiFF-nvon5pC7xxNcr-75" target="6rRiFF-nvon5pC7xxNcr-10">
          <mxGeometry relative="1" as="geometry">
            <mxPoint x="150" y="143" as="targetPoint" />
          </mxGeometry>
        </mxCell>
        <mxCell id="6rRiFF-nvon5pC7xxNcr-79" value="1" style="edgeLabel;html=1;align=center;verticalAlign=middle;resizable=0;points=[];" vertex="1" connectable="0" parent="6rRiFF-nvon5pC7xxNcr-78">
          <mxGeometry x="0.8548" y="-1" relative="1" as="geometry">
            <mxPoint as="offset" />
          </mxGeometry>
        </mxCell>
        <mxCell id="6rRiFF-nvon5pC7xxNcr-80" value="*" style="edgeLabel;html=1;align=center;verticalAlign=middle;resizable=0;points=[];" vertex="1" connectable="0" parent="6rRiFF-nvon5pC7xxNcr-78">
          <mxGeometry x="-0.7898" y="-1" relative="1" as="geometry">
            <mxPoint as="offset" />
          </mxGeometry>
        </mxCell>
        <mxCell id="6rRiFF-nvon5pC7xxNcr-95" style="edgeStyle=orthogonalEdgeStyle;rounded=0;orthogonalLoop=1;jettySize=auto;html=1;exitX=0;exitY=0.5;exitDx=0;exitDy=0;entryX=1;entryY=0.5;entryDx=0;entryDy=0;endArrow=none;endFill=0;" edge="1" parent="1" source="6rRiFF-nvon5pC7xxNcr-92" target="6rRiFF-nvon5pC7xxNcr-6">
          <mxGeometry relative="1" as="geometry" />
        </mxCell>
        <mxCell id="6rRiFF-nvon5pC7xxNcr-102" value="1" style="edgeLabel;html=1;align=center;verticalAlign=middle;resizable=0;points=[];" vertex="1" connectable="0" parent="6rRiFF-nvon5pC7xxNcr-95">
          <mxGeometry x="-0.8938" y="2" relative="1" as="geometry">
            <mxPoint as="offset" />
          </mxGeometry>
        </mxCell>
        <mxCell id="6rRiFF-nvon5pC7xxNcr-103" value="1" style="edgeLabel;html=1;align=center;verticalAlign=middle;resizable=0;points=[];" vertex="1" connectable="0" parent="6rRiFF-nvon5pC7xxNcr-95">
          <mxGeometry x="0.9442" y="-2" relative="1" as="geometry">
            <mxPoint as="offset" />
          </mxGeometry>
        </mxCell>
        <mxCell id="6rRiFF-nvon5pC7xxNcr-91" value="Account" style="swimlane;fontStyle=1;align=center;verticalAlign=top;childLayout=stackLayout;horizontal=1;startSize=26;horizontalStack=0;resizeParent=1;resizeParentMax=0;resizeLast=0;collapsible=1;marginBottom=0;" vertex="1" parent="1">
          <mxGeometry x="840" y="446" width="160" height="60" as="geometry" />
        </mxCell>
        <mxCell id="6rRiFF-nvon5pC7xxNcr-92" value="- password: String" style="text;strokeColor=none;fillColor=none;align=left;verticalAlign=top;spacingLeft=4;spacingRight=4;overflow=hidden;rotatable=0;points=[[0,0.5],[1,0.5]];portConstraint=eastwest;" vertex="1" parent="6rRiFF-nvon5pC7xxNcr-91">
          <mxGeometry y="26" width="160" height="34" as="geometry" />
        </mxCell>
        <mxCell id="6rRiFF-nvon5pC7xxNcr-168" style="edgeStyle=orthogonalEdgeStyle;rounded=0;orthogonalLoop=1;jettySize=auto;html=1;exitX=0.5;exitY=0;exitDx=0;exitDy=0;entryX=0.475;entryY=0.984;entryDx=0;entryDy=0;entryPerimeter=0;endArrow=none;endFill=0;" edge="1" parent="1" source="6rRiFF-nvon5pC7xxNcr-104" target="6rRiFF-nvon5pC7xxNcr-165">
          <mxGeometry relative="1" as="geometry" />
        </mxCell>
        <mxCell id="6rRiFF-nvon5pC7xxNcr-169" value="1" style="edgeLabel;html=1;align=center;verticalAlign=middle;resizable=0;points=[];" vertex="1" connectable="0" parent="6rRiFF-nvon5pC7xxNcr-168">
          <mxGeometry x="0.6318" y="-2" relative="1" as="geometry">
            <mxPoint as="offset" />
          </mxGeometry>
        </mxCell>
        <mxCell id="6rRiFF-nvon5pC7xxNcr-170" value="*" style="edgeLabel;html=1;align=center;verticalAlign=middle;resizable=0;points=[];" vertex="1" connectable="0" parent="6rRiFF-nvon5pC7xxNcr-168">
          <mxGeometry x="-0.683" y="-1" relative="1" as="geometry">
            <mxPoint as="offset" />
          </mxGeometry>
        </mxCell>
        <mxCell id="6rRiFF-nvon5pC7xxNcr-104" value="LichHoc" style="swimlane;fontStyle=1;align=center;verticalAlign=top;childLayout=stackLayout;horizontal=1;startSize=26;horizontalStack=0;resizeParent=1;resizeParentMax=0;resizeLast=0;collapsible=1;marginBottom=0;" vertex="1" parent="1">
          <mxGeometry x="870" y="187" width="170" height="204" as="geometry" />
        </mxCell>
        <mxCell id="6rRiFF-nvon5pC7xxNcr-105" value="- id: String&#xa;- loaiHocPhan: LoaiHocPhan&#xa;- ngayHocTrongTuan: int&#xa;- nhomThucHanh: int&#xa;- thoiGianBatDau: Date&#xa;- thoiGianKetThuc: Date&#xa;- tietHocBatDau: int&#xa;- tietHocKetThuc: int&#xa;- ghiChu: String" style="text;strokeColor=none;fillColor=none;align=left;verticalAlign=top;spacingLeft=4;spacingRight=4;overflow=hidden;rotatable=0;points=[[0,0.5],[1,0.5]];portConstraint=eastwest;" vertex="1" parent="6rRiFF-nvon5pC7xxNcr-104">
          <mxGeometry y="26" width="170" height="178" as="geometry" />
        </mxCell>
        <mxCell id="6rRiFF-nvon5pC7xxNcr-108" style="edgeStyle=orthogonalEdgeStyle;rounded=0;orthogonalLoop=1;jettySize=auto;html=1;exitX=0;exitY=0.5;exitDx=0;exitDy=0;entryX=0.827;entryY=1.005;entryDx=0;entryDy=0;endArrow=none;endFill=0;entryPerimeter=0;" edge="1" parent="1" source="6rRiFF-nvon5pC7xxNcr-105" target="6rRiFF-nvon5pC7xxNcr-27">
          <mxGeometry relative="1" as="geometry">
            <mxPoint x="870" y="-39.00000000000023" as="targetPoint" />
          </mxGeometry>
        </mxCell>
        <mxCell id="6rRiFF-nvon5pC7xxNcr-109" value="1" style="edgeLabel;html=1;align=center;verticalAlign=middle;resizable=0;points=[];" vertex="1" connectable="0" parent="6rRiFF-nvon5pC7xxNcr-108">
          <mxGeometry x="0.7792" y="5" relative="1" as="geometry">
            <mxPoint x="-1" as="offset" />
          </mxGeometry>
        </mxCell>
        <mxCell id="6rRiFF-nvon5pC7xxNcr-110" value="*" style="edgeLabel;html=1;align=center;verticalAlign=middle;resizable=0;points=[];" vertex="1" connectable="0" parent="6rRiFF-nvon5pC7xxNcr-108">
          <mxGeometry x="-0.7166" y="4" relative="1" as="geometry">
            <mxPoint x="1" as="offset" />
          </mxGeometry>
        </mxCell>
        <mxCell id="6rRiFF-nvon5pC7xxNcr-119" style="edgeStyle=orthogonalEdgeStyle;rounded=0;orthogonalLoop=1;jettySize=auto;html=1;exitX=0.75;exitY=0;exitDx=0;exitDy=0;entryX=0.14;entryY=1.005;entryDx=0;entryDy=0;endArrow=none;endFill=0;entryPerimeter=0;" edge="1" parent="1" source="6rRiFF-nvon5pC7xxNcr-112" target="6rRiFF-nvon5pC7xxNcr-27">
          <mxGeometry relative="1" as="geometry">
            <mxPoint x="700.8000000000002" y="-23.8420000000001" as="targetPoint" />
            <Array as="points">
              <mxPoint x="560" y="90" />
              <mxPoint x="695" y="90" />
              <mxPoint x="695" y="-59" />
            </Array>
          </mxGeometry>
        </mxCell>
        <mxCell id="6rRiFF-nvon5pC7xxNcr-120" value="*" style="edgeLabel;html=1;align=center;verticalAlign=middle;resizable=0;points=[];" vertex="1" connectable="0" parent="6rRiFF-nvon5pC7xxNcr-119">
          <mxGeometry x="-0.8032" y="2" relative="1" as="geometry">
            <mxPoint as="offset" />
          </mxGeometry>
        </mxCell>
        <mxCell id="6rRiFF-nvon5pC7xxNcr-121" value="1" style="edgeLabel;html=1;align=center;verticalAlign=middle;resizable=0;points=[];" vertex="1" connectable="0" parent="6rRiFF-nvon5pC7xxNcr-119">
          <mxGeometry x="0.8392" relative="1" as="geometry">
            <mxPoint as="offset" />
          </mxGeometry>
        </mxCell>
        <mxCell id="6rRiFF-nvon5pC7xxNcr-112" value="GiangVien_LopHocPhan" style="swimlane;fontStyle=1;align=center;verticalAlign=top;childLayout=stackLayout;horizontal=1;startSize=26;horizontalStack=0;resizeParent=1;resizeParentMax=0;resizeLast=0;collapsible=1;marginBottom=0;" vertex="1" parent="1">
          <mxGeometry x="440" y="140" width="160" height="70" as="geometry" />
        </mxCell>
        <mxCell id="6rRiFF-nvon5pC7xxNcr-116" style="edgeStyle=orthogonalEdgeStyle;rounded=0;orthogonalLoop=1;jettySize=auto;html=1;exitX=0.445;exitY=0.996;exitDx=0;exitDy=0;endArrow=none;endFill=0;exitPerimeter=0;" edge="1" parent="1" source="6rRiFF-nvon5pC7xxNcr-75">
          <mxGeometry relative="1" as="geometry">
            <mxPoint x="274.96000000000004" y="368.0039999999999" as="sourcePoint" />
            <mxPoint x="440" y="179" as="targetPoint" />
            <Array as="points">
              <mxPoint x="261" y="340" />
              <mxPoint x="400" y="340" />
              <mxPoint x="400" y="179" />
            </Array>
          </mxGeometry>
        </mxCell>
        <mxCell id="6rRiFF-nvon5pC7xxNcr-117" value="1" style="edgeLabel;html=1;align=center;verticalAlign=middle;resizable=0;points=[];" vertex="1" connectable="0" parent="6rRiFF-nvon5pC7xxNcr-116">
          <mxGeometry x="-0.7489" y="-1" relative="1" as="geometry">
            <mxPoint as="offset" />
          </mxGeometry>
        </mxCell>
        <mxCell id="6rRiFF-nvon5pC7xxNcr-118" value="*" style="edgeLabel;html=1;align=center;verticalAlign=middle;resizable=0;points=[];" vertex="1" connectable="0" parent="6rRiFF-nvon5pC7xxNcr-116">
          <mxGeometry x="0.7717" y="1" relative="1" as="geometry">
            <mxPoint as="offset" />
          </mxGeometry>
        </mxCell>
        <mxCell id="6rRiFF-nvon5pC7xxNcr-122" value="Admin" style="swimlane;fontStyle=1;align=center;verticalAlign=top;childLayout=stackLayout;horizontal=1;startSize=26;horizontalStack=0;resizeParent=1;resizeParentMax=0;resizeLast=0;collapsible=1;marginBottom=0;" vertex="1" parent="1">
          <mxGeometry x="-100" y="-120" width="160" height="70" as="geometry" />
        </mxCell>
        <mxCell id="6rRiFF-nvon5pC7xxNcr-123" value="- userName: String&#xa;- password: String" style="text;strokeColor=none;fillColor=none;align=left;verticalAlign=top;spacingLeft=4;spacingRight=4;overflow=hidden;rotatable=0;points=[[0,0.5],[1,0.5]];portConstraint=eastwest;" vertex="1" parent="6rRiFF-nvon5pC7xxNcr-122">
          <mxGeometry y="26" width="160" height="44" as="geometry" />
        </mxCell>
        <mxCell id="6rRiFF-nvon5pC7xxNcr-126" value="&lt;&lt;enum&gt;&gt;&#xa;BacDaoTao" style="swimlane;fontStyle=1;align=center;verticalAlign=top;childLayout=stackLayout;horizontal=1;startSize=45;horizontalStack=0;resizeParent=1;resizeParentMax=0;resizeLast=0;collapsible=1;marginBottom=0;fillColor=#f8cecc;strokeColor=#b85450;" vertex="1" parent="1">
          <mxGeometry x="1120" y="200" width="160" height="140" as="geometry" />
        </mxCell>
        <mxCell id="6rRiFF-nvon5pC7xxNcr-127" value="- DAI_HOC&#xa;- CAO_DANG&#xa;- THAC_SI" style="text;strokeColor=#b85450;fillColor=#f8cecc;align=left;verticalAlign=top;spacingLeft=4;spacingRight=4;overflow=hidden;rotatable=0;points=[[0,0.5],[1,0.5]];portConstraint=eastwest;" vertex="1" parent="6rRiFF-nvon5pC7xxNcr-126">
          <mxGeometry y="45" width="160" height="95" as="geometry" />
        </mxCell>
        <mxCell id="6rRiFF-nvon5pC7xxNcr-130" value="&lt;&lt;enum&gt;&gt;&#xa;LoaiHinhDaoTao" style="swimlane;fontStyle=1;align=center;verticalAlign=top;childLayout=stackLayout;horizontal=1;startSize=45;horizontalStack=0;resizeParent=1;resizeParentMax=0;resizeLast=0;collapsible=1;marginBottom=0;fillColor=#f8cecc;strokeColor=#b85450;" vertex="1" parent="1">
          <mxGeometry x="1120" y="70" width="160" height="90" as="geometry" />
        </mxCell>
        <mxCell id="6rRiFF-nvon5pC7xxNcr-131" value="- TIEN_TIEN&#xa;- DAI_TRA" style="text;strokeColor=#b85450;fillColor=#f8cecc;align=left;verticalAlign=top;spacingLeft=4;spacingRight=4;overflow=hidden;rotatable=0;points=[[0,0.5],[1,0.5]];portConstraint=eastwest;" vertex="1" parent="6rRiFF-nvon5pC7xxNcr-130">
          <mxGeometry y="45" width="160" height="45" as="geometry" />
        </mxCell>
        <mxCell id="6rRiFF-nvon5pC7xxNcr-132" value="&lt;&lt;enum&gt;&gt;&#xa;TrangThai" style="swimlane;fontStyle=1;align=center;verticalAlign=top;childLayout=stackLayout;horizontal=1;startSize=45;horizontalStack=0;resizeParent=1;resizeParentMax=0;resizeLast=0;collapsible=1;marginBottom=0;fillColor=#f8cecc;strokeColor=#b85450;" vertex="1" parent="1">
          <mxGeometry x="1120" y="360" width="160" height="105" as="geometry" />
        </mxCell>
        <mxCell id="6rRiFF-nvon5pC7xxNcr-133" value="- DANG_HOC&#xa;- RA_TRUONG&#xa;- BAO_LUU" style="text;strokeColor=#b85450;fillColor=#f8cecc;align=left;verticalAlign=top;spacingLeft=4;spacingRight=4;overflow=hidden;rotatable=0;points=[[0,0.5],[1,0.5]];portConstraint=eastwest;" vertex="1" parent="6rRiFF-nvon5pC7xxNcr-132">
          <mxGeometry y="45" width="160" height="60" as="geometry" />
        </mxCell>
        <mxCell id="6rRiFF-nvon5pC7xxNcr-140" style="edgeStyle=orthogonalEdgeStyle;rounded=0;orthogonalLoop=1;jettySize=auto;html=1;exitX=0.75;exitY=0;exitDx=0;exitDy=0;entryX=0;entryY=0.5;entryDx=0;entryDy=0;endArrow=none;endFill=0;" edge="1" parent="1" source="6rRiFF-nvon5pC7xxNcr-136" target="6rRiFF-nvon5pC7xxNcr-6">
          <mxGeometry relative="1" as="geometry" />
        </mxCell>
        <mxCell id="6rRiFF-nvon5pC7xxNcr-141" value="1" style="edgeLabel;html=1;align=center;verticalAlign=middle;resizable=0;points=[];" vertex="1" connectable="0" parent="6rRiFF-nvon5pC7xxNcr-140">
          <mxGeometry x="-0.8407" y="4" relative="1" as="geometry">
            <mxPoint as="offset" />
          </mxGeometry>
        </mxCell>
        <mxCell id="6rRiFF-nvon5pC7xxNcr-142" value="1" style="edgeLabel;html=1;align=center;verticalAlign=middle;resizable=0;points=[];" vertex="1" connectable="0" parent="6rRiFF-nvon5pC7xxNcr-140">
          <mxGeometry x="0.8319" y="-2" relative="1" as="geometry">
            <mxPoint as="offset" />
          </mxGeometry>
        </mxCell>
        <mxCell id="6rRiFF-nvon5pC7xxNcr-136" value="CMND" style="swimlane;fontStyle=1;align=center;verticalAlign=top;childLayout=stackLayout;horizontal=1;startSize=26;horizontalStack=0;resizeParent=1;resizeParentMax=0;resizeLast=0;collapsible=1;marginBottom=0;" vertex="1" parent="1">
          <mxGeometry x="270" y="480" width="160" height="90" as="geometry" />
        </mxCell>
        <mxCell id="6rRiFF-nvon5pC7xxNcr-137" value="- soCMND: String&#xa;- noiCap: String&#xa;- ngayCap: Date" style="text;strokeColor=none;fillColor=none;align=left;verticalAlign=top;spacingLeft=4;spacingRight=4;overflow=hidden;rotatable=0;points=[[0,0.5],[1,0.5]];portConstraint=eastwest;" vertex="1" parent="6rRiFF-nvon5pC7xxNcr-136">
          <mxGeometry y="26" width="160" height="64" as="geometry" />
        </mxCell>
        <mxCell id="6rRiFF-nvon5pC7xxNcr-143" value="&lt;&lt;enum&gt;&gt;&#xa;DanToc" style="swimlane;fontStyle=1;align=center;verticalAlign=top;childLayout=stackLayout;horizontal=1;startSize=45;horizontalStack=0;resizeParent=1;resizeParentMax=0;resizeLast=0;collapsible=1;marginBottom=0;fillColor=#f8cecc;strokeColor=#b85450;" vertex="1" parent="1">
          <mxGeometry x="1120" y="630" width="160" height="90" as="geometry" />
        </mxCell>
        <mxCell id="6rRiFF-nvon5pC7xxNcr-144" value="- KINH" style="text;strokeColor=#b85450;fillColor=#f8cecc;align=left;verticalAlign=top;spacingLeft=4;spacingRight=4;overflow=hidden;rotatable=0;points=[[0,0.5],[1,0.5]];portConstraint=eastwest;" vertex="1" parent="6rRiFF-nvon5pC7xxNcr-143">
          <mxGeometry y="45" width="160" height="45" as="geometry" />
        </mxCell>
        <mxCell id="6rRiFF-nvon5pC7xxNcr-145" value="&lt;&lt;enum&gt;&gt;&#xa;TonGiao" style="swimlane;fontStyle=1;align=center;verticalAlign=top;childLayout=stackLayout;horizontal=1;startSize=45;horizontalStack=0;resizeParent=1;resizeParentMax=0;resizeLast=0;collapsible=1;marginBottom=0;fillColor=#f8cecc;strokeColor=#b85450;" vertex="1" parent="1">
          <mxGeometry x="1120" y="500" width="160" height="90" as="geometry" />
        </mxCell>
        <mxCell id="6rRiFF-nvon5pC7xxNcr-146" value="- PHAT_GIAO" style="text;strokeColor=#b85450;fillColor=#f8cecc;align=left;verticalAlign=top;spacingLeft=4;spacingRight=4;overflow=hidden;rotatable=0;points=[[0,0.5],[1,0.5]];portConstraint=eastwest;" vertex="1" parent="6rRiFF-nvon5pC7xxNcr-145">
          <mxGeometry y="45" width="160" height="45" as="geometry" />
        </mxCell>
        <mxCell id="6rRiFF-nvon5pC7xxNcr-151" value="HocPhan" style="swimlane;fontStyle=1;align=center;verticalAlign=top;childLayout=stackLayout;horizontal=1;startSize=26;horizontalStack=0;resizeParent=1;resizeParentMax=0;resizeLast=0;collapsible=1;marginBottom=0;" vertex="1" parent="1">
          <mxGeometry x="430" y="-101.5" width="160" height="180" as="geometry" />
        </mxCell>
        <mxCell id="6rRiFF-nvon5pC7xxNcr-152" value="- id: String&#xa;- maHocPhan: String&#xa;- soTinChiLyThuyet: int&#xa;- soTinChiThucHanh: int&#xa;- moTa: String&#xa;- batBuoc: boolean&#xa;- monTienQuyet: MonHoc&#xa;- monSongHanh: MonHoc&#xa;- hocTruoc: MonHoc" style="text;strokeColor=none;fillColor=none;align=left;verticalAlign=top;spacingLeft=4;spacingRight=4;overflow=hidden;rotatable=0;points=[[0,0.5],[1,0.5]];portConstraint=eastwest;" vertex="1" parent="6rRiFF-nvon5pC7xxNcr-151">
          <mxGeometry y="26" width="160" height="154" as="geometry" />
        </mxCell>
        <mxCell id="6rRiFF-nvon5pC7xxNcr-155" style="edgeStyle=orthogonalEdgeStyle;rounded=0;orthogonalLoop=1;jettySize=auto;html=1;exitX=1;exitY=0.5;exitDx=0;exitDy=0;entryX=0;entryY=0.5;entryDx=0;entryDy=0;endArrow=none;endFill=0;" edge="1" parent="1" source="6rRiFF-nvon5pC7xxNcr-53" target="6rRiFF-nvon5pC7xxNcr-152">
          <mxGeometry relative="1" as="geometry" />
        </mxCell>
        <mxCell id="6rRiFF-nvon5pC7xxNcr-156" value="1" style="edgeLabel;html=1;align=center;verticalAlign=middle;resizable=0;points=[];" vertex="1" connectable="0" parent="6rRiFF-nvon5pC7xxNcr-155">
          <mxGeometry x="-0.7154" relative="1" as="geometry">
            <mxPoint as="offset" />
          </mxGeometry>
        </mxCell>
        <mxCell id="6rRiFF-nvon5pC7xxNcr-157" value="*" style="edgeLabel;html=1;align=center;verticalAlign=middle;resizable=0;points=[];" vertex="1" connectable="0" parent="6rRiFF-nvon5pC7xxNcr-155">
          <mxGeometry x="0.8077" y="-1" relative="1" as="geometry">
            <mxPoint as="offset" />
          </mxGeometry>
        </mxCell>
        <mxCell id="6rRiFF-nvon5pC7xxNcr-158" style="edgeStyle=orthogonalEdgeStyle;rounded=0;orthogonalLoop=1;jettySize=auto;html=1;exitX=1;exitY=0.5;exitDx=0;exitDy=0;entryX=0.5;entryY=0;entryDx=0;entryDy=0;endArrow=none;endFill=0;" edge="1" parent="1" source="6rRiFF-nvon5pC7xxNcr-152" target="6rRiFF-nvon5pC7xxNcr-26">
          <mxGeometry relative="1" as="geometry" />
        </mxCell>
        <mxCell id="6rRiFF-nvon5pC7xxNcr-159" value="1" style="edgeLabel;html=1;align=center;verticalAlign=middle;resizable=0;points=[];" vertex="1" connectable="0" parent="6rRiFF-nvon5pC7xxNcr-158">
          <mxGeometry x="-0.8014" relative="1" as="geometry">
            <mxPoint as="offset" />
          </mxGeometry>
        </mxCell>
        <mxCell id="6rRiFF-nvon5pC7xxNcr-160" value="*" style="edgeLabel;html=1;align=center;verticalAlign=middle;resizable=0;points=[];" vertex="1" connectable="0" parent="6rRiFF-nvon5pC7xxNcr-158">
          <mxGeometry x="0.8069" relative="1" as="geometry">
            <mxPoint as="offset" />
          </mxGeometry>
        </mxCell>
        <mxCell id="6rRiFF-nvon5pC7xxNcr-175" style="edgeStyle=orthogonalEdgeStyle;rounded=0;orthogonalLoop=1;jettySize=auto;html=1;exitX=0.5;exitY=0;exitDx=0;exitDy=0;entryX=0.46;entryY=1.011;entryDx=0;entryDy=0;entryPerimeter=0;endArrow=none;endFill=0;" edge="1" parent="1" source="6rRiFF-nvon5pC7xxNcr-164" target="6rRiFF-nvon5pC7xxNcr-172">
          <mxGeometry relative="1" as="geometry" />
        </mxCell>
        <mxCell id="6rRiFF-nvon5pC7xxNcr-176" value="1" style="edgeLabel;html=1;align=center;verticalAlign=middle;resizable=0;points=[];" vertex="1" connectable="0" parent="6rRiFF-nvon5pC7xxNcr-175">
          <mxGeometry x="0.8386" y="1" relative="1" as="geometry">
            <mxPoint as="offset" />
          </mxGeometry>
        </mxCell>
        <mxCell id="6rRiFF-nvon5pC7xxNcr-177" value="*" style="edgeLabel;html=1;align=center;verticalAlign=middle;resizable=0;points=[];" vertex="1" connectable="0" parent="6rRiFF-nvon5pC7xxNcr-175">
          <mxGeometry x="-0.7635" relative="1" as="geometry">
            <mxPoint as="offset" />
          </mxGeometry>
        </mxCell>
        <mxCell id="6rRiFF-nvon5pC7xxNcr-164" value="PhongHoc" style="swimlane;fontStyle=1;align=center;verticalAlign=top;childLayout=stackLayout;horizontal=1;startSize=26;horizontalStack=0;resizeParent=1;resizeParentMax=0;resizeLast=0;collapsible=1;marginBottom=0;" vertex="1" parent="1">
          <mxGeometry x="880" y="20" width="160" height="90" as="geometry" />
        </mxCell>
        <mxCell id="6rRiFF-nvon5pC7xxNcr-165" value="- id: String&#xa;- ten: String&#xa;- sucChua: int" style="text;strokeColor=none;fillColor=none;align=left;verticalAlign=top;spacingLeft=4;spacingRight=4;overflow=hidden;rotatable=0;points=[[0,0.5],[1,0.5]];portConstraint=eastwest;" vertex="1" parent="6rRiFF-nvon5pC7xxNcr-164">
          <mxGeometry y="26" width="160" height="64" as="geometry" />
        </mxCell>
        <mxCell id="6rRiFF-nvon5pC7xxNcr-171" value="DayNha" style="swimlane;fontStyle=1;align=center;verticalAlign=top;childLayout=stackLayout;horizontal=1;startSize=26;horizontalStack=0;resizeParent=1;resizeParentMax=0;resizeLast=0;collapsible=1;marginBottom=0;" vertex="1" parent="1">
          <mxGeometry x="890" y="-140" width="160" height="90" as="geometry" />
        </mxCell>
        <mxCell id="6rRiFF-nvon5pC7xxNcr-172" value="- id: String&#xa;- ten: String" style="text;strokeColor=none;fillColor=none;align=left;verticalAlign=top;spacingLeft=4;spacingRight=4;overflow=hidden;rotatable=0;points=[[0,0.5],[1,0.5]];portConstraint=eastwest;" vertex="1" parent="6rRiFF-nvon5pC7xxNcr-171">
          <mxGeometry y="26" width="160" height="64" as="geometry" />
        </mxCell>
        <mxCell id="6rRiFF-nvon5pC7xxNcr-178" value="&lt;&lt;enum&gt;&gt;&#xa;HocHam" style="swimlane;fontStyle=1;align=center;verticalAlign=top;childLayout=stackLayout;horizontal=1;startSize=45;horizontalStack=0;resizeParent=1;resizeParentMax=0;resizeLast=0;collapsible=1;marginBottom=0;fillColor=#f8cecc;strokeColor=#b85450;" vertex="1" parent="1">
          <mxGeometry x="1120" y="-50" width="160" height="100" as="geometry" />
        </mxCell>
        <mxCell id="6rRiFF-nvon5pC7xxNcr-179" value="THAC_SI&#xa;TIEN_SI&#xa;" style="text;strokeColor=#b85450;fillColor=#f8cecc;align=left;verticalAlign=top;spacingLeft=4;spacingRight=4;overflow=hidden;rotatable=0;points=[[0,0.5],[1,0.5]];portConstraint=eastwest;" vertex="1" parent="6rRiFF-nvon5pC7xxNcr-178">
          <mxGeometry y="45" width="160" height="55" as="geometry" />
        </mxCell>
        <mxCell id="6rRiFF-nvon5pC7xxNcr-183" style="edgeStyle=orthogonalEdgeStyle;rounded=0;orthogonalLoop=1;jettySize=auto;html=1;exitX=0;exitY=0.5;exitDx=0;exitDy=0;entryX=1;entryY=0.25;entryDx=0;entryDy=0;endArrow=none;endFill=0;" edge="1" parent="1" source="6rRiFF-nvon5pC7xxNcr-53" target="6rRiFF-nvon5pC7xxNcr-9">
          <mxGeometry relative="1" as="geometry" />
        </mxCell>
        <mxCell id="6rRiFF-nvon5pC7xxNcr-184" value="1" style="edgeLabel;html=1;align=center;verticalAlign=middle;resizable=0;points=[];" vertex="1" connectable="0" parent="6rRiFF-nvon5pC7xxNcr-183">
          <mxGeometry x="0.8645" y="-1" relative="1" as="geometry">
            <mxPoint as="offset" />
          </mxGeometry>
        </mxCell>
        <mxCell id="6rRiFF-nvon5pC7xxNcr-185" value="*" style="edgeLabel;html=1;align=center;verticalAlign=middle;resizable=0;points=[];" vertex="1" connectable="0" parent="6rRiFF-nvon5pC7xxNcr-183">
          <mxGeometry x="-0.8865" y="4" relative="1" as="geometry">
            <mxPoint as="offset" />
          </mxGeometry>
        </mxCell>
        <mxCell id="6rRiFF-nvon5pC7xxNcr-186" value="&lt;&lt;enum&gt;&gt;&#xa;TrangThaiLopHocPhan" style="swimlane;fontStyle=1;align=center;verticalAlign=top;childLayout=stackLayout;horizontal=1;startSize=45;horizontalStack=0;resizeParent=1;resizeParentMax=0;resizeLast=0;collapsible=1;marginBottom=0;fillColor=#f8cecc;strokeColor=#b85450;" vertex="1" parent="1">
          <mxGeometry x="1120" y="-210" width="160" height="140" as="geometry" />
        </mxCell>
        <mxCell id="6rRiFF-nvon5pC7xxNcr-187" value="CHO_SV_DANG_KY&#xa;DANG_LEN_KE_HOACH&#xa;CHAP_NHAN_MO_LOP&#xa;HUY_LOP_HOC_PHAN&#xa;DA_KHOA" style="text;strokeColor=#b85450;fillColor=#f8cecc;align=left;verticalAlign=top;spacingLeft=4;spacingRight=4;overflow=hidden;rotatable=0;points=[[0,0.5],[1,0.5]];portConstraint=eastwest;" vertex="1" parent="6rRiFF-nvon5pC7xxNcr-186">
          <mxGeometry y="45" width="160" height="95" as="geometry" />
        </mxCell>
      </root>
    </mxGraphModel>
  </diagram>
</mxfile>
